<?xml version="1.0" encoding="utf-8"?><!-- Uploaded to: SVG Repo, www.svgrepo.com, Generator: SVG Repo Mixer Tools -->
<svg width="800px" height="800px" viewBox="-252 343.9 106.1 106.1" xmlns="http://www.w3.org/2000/svg"><path fill="#F05138" d="M-145.9 373.3v-3.2c-.1-2.3-.2-4.7-.6-7-.4-2.3-1.1-4.5-2.2-6.6-1.1-2.1-2.4-4-4.1-5.6-1.7-1.7-3.6-3-5.6-4.1-2.1-1.1-4.3-1.8-6.6-2.2-2.3-.4-4.6-.6-7-.6h-53.7c-.6 0-1.2 0-1.7.1-1.7.1-3.5.2-5.2.5-1.7.3-3.4.8-5 1.4-.5.2-1.1.5-1.6.7-1.6.8-3 1.8-4.4 2.9-.4.4-.9.8-1.3 1.2-1.7 1.7-3 3.6-4.1 5.6-1.1 2.1-1.8 4.3-2.2 6.6-.4 2.3-.5 4.6-.6 7v53.7c.1 2.3.2 4.7.6 7 .4 2.3 1.1 4.5 2.2 6.6 1.1 2.1 2.4 4 4.1 5.6 1.7 1.7 3.6 3 5.6 4.1 2.1 1.1 4.3 1.8 6.6 2.2 2.3.4 4.6.6 7 .6h53.7c2.3-.1 4.7-.2 7-.6 2.3-.4 4.5-1.1 6.6-2.2 2.1-1.1 4-2.4 5.6-4.1 1.7-1.7 3-3.6 4.1-5.6 1.1-2.1 1.8-4.3 2.2-6.6.4-2.3.6-4.6.6-7v-3.2V377v-3.7z"/><path fill="#FFF" d="M-168 409.4l.3-1.2c4.4-17.5-6.3-38.3-24.5-49.2 8 10.8 11.5 23.9 8.4 35.3-.3 1-.6 2-1 3-.4-.3-.9-.6-1.6-.9 0 0-18.1-11.2-37.7-30.9-.5-.5 10.5 15.7 22.9 28.8-5.9-3.3-22.2-15.2-32.6-24.6 1.3 2.1 2.8 4.2 4.4 6.1 8.6 11 19.9 24.5 33.4 34.9-9.5 5.8-22.9 6.3-36.2 0-3.3-1.5-6.4-3.4-9.3-5.5 5.6 9 14.3 16.8 24.9 21.4 12.6 5.4 25.2 5.1 34.5.1 0 0 .1 0 .1-.1.4-.2.8-.5 1.2-.7 4.5-2.3 13.3-4.6 18.1 4.6 1.4 2.1 3.9-9.9-5.3-21.1z"/></svg>